<?xml version="1.0" encoding="UTF-8" standalone="no"?>
<!DOCTYPE svg PUBLIC "-//W3C//DTD SVG 1.1//EN" "http://www.w3.org/Graphics/SVG/1.1/DTD/svg11.dtd">
<svg width="100%" height="100%" viewBox="0 0 42 42" version="1.1" xmlns="http://www.w3.org/2000/svg" xmlns:xlink="http://www.w3.org/1999/xlink" xml:space="preserve" xmlns:serif="http://www.serif.com/" style="fill-rule:evenodd;clip-rule:evenodd;stroke-linejoin:round;stroke-miterlimit:2;">
    <g id="_1" transform="matrix(1,0,0,1,-239.572,-229.102)">
        <path d="M353,450C349.023,450.002 345.203,448.422 342.39,445.61L157.5,260.71C151.683,254.892 151.683,245.318 157.5,239.5L342.39,54.6C345.202,51.786 349.022,50.204 353,50.204C361.229,50.204 368.001,56.976 368.001,65.205C368.001,69.181 366.421,72.998 363.61,75.81L189.32,250.1L363.61,424.39C366.424,427.202 368.007,431.022 368.007,435C368.007,443.229 361.236,450 353.007,450C353.005,450 353.002,450 353,450Z" style="fill-rule:nonzero;"/>
    </g>
    <g id="_11" serif:id="_1" transform="matrix(0.0489681,0,0,0.0489681,1.24028,8.75299)">
        <path d="M353,450C349.023,450.002 345.203,448.422 342.39,445.61L157.5,260.71C151.683,254.892 151.683,245.318 157.5,239.5L342.39,54.6C345.202,51.786 349.022,50.204 353,50.204C361.229,50.204 368.001,56.976 368.001,65.205C368.001,69.181 366.421,72.998 363.61,75.81L189.32,250.1L363.61,424.39C366.424,427.202 368.007,431.022 368.007,435C368.007,443.229 361.236,450 353.007,450C353.005,450 353.002,450 353,450Z" style="fill-rule:nonzero;"/>
        <g transform="matrix(-1,0,0,1,807.045,0)">
            <path d="M353,450C349.023,450.002 345.203,448.422 342.39,445.61L157.5,260.71C151.683,254.892 151.683,245.318 157.5,239.5L342.39,54.6C345.202,51.786 349.022,50.204 353,50.204C361.229,50.204 368.001,56.976 368.001,65.205C368.001,69.181 366.421,72.998 363.61,75.81L189.32,250.1L363.61,424.39C366.424,427.202 368.007,431.022 368.007,435C368.007,443.229 361.236,450 353.007,450C353.005,450 353.002,450 353,450Z" style="fill-rule:nonzero;"/>
        </g>
    </g>
</svg>
